<?xml version="1.0" encoding="utf-8"?>
<!-- Generator: Adobe Illustrator 16.0.0, SVG Export Plug-In . SVG Version: 6.00 Build 0)  -->
<!DOCTYPE svg PUBLIC "-//W3C//DTD SVG 1.1//EN" "http://www.w3.org/Graphics/SVG/1.1/DTD/svg11.dtd">
<svg version="1.1" xmlns="http://www.w3.org/2000/svg" xmlns:xlink="http://www.w3.org/1999/xlink" x="0px" y="0px"
	 width="737.116px" height="328px" viewBox="0 0 737.116 328" enable-background="new 0 0 737.116 328" xml:space="preserve">
<g id="Layer_1">
	<path fill="#008B8B" d="M337.081,218.055c0,9.82-6.97,17.781-15.568,17.781H75.545c-8.599,0-15.569-7.96-15.569-17.781v-8.89
		c0-9.82,6.97-17.781,15.569-17.781h245.967c8.598,0,15.568,7.96,15.568,17.781V218.055z"/>
	<path fill="#008B8B" d="M272.748,136.122c0,8.598-5.352,15.569-11.955,15.569H71.931c-6.603,0-11.954-6.971-11.954-15.569v-7.784
		c0-8.598,5.352-15.569,11.954-15.569h188.862c6.603,0,11.955,6.971,11.955,15.569V136.122z"/>
	<path fill="#008B8B" d="M651.495,135.063c2.123,6.98-2.982,14.716-11.403,17.276L399.208,225.59
		c-8.42,2.56-16.968-1.024-19.09-8.004l-1.921-6.319c-2.124-6.98,2.981-14.716,11.401-17.276l240.884-73.251
		c8.421-2.56,16.969,1.024,19.091,8.003L651.495,135.063z"/>
	<path fill="#008B8B" d="M653.299,136.122c0,8.598-6.927,15.569-15.474,15.569H393.365c-8.546,0-15.473-6.971-15.473-15.569v-7.784
		c0-8.598,6.927-15.569,15.473-15.569h244.461c8.546,0,15.474,6.971,15.474,15.569V136.122z"/>
	<path fill="#008B8B" d="M653.299,217.502c0,8.598-6.927,15.568-15.474,15.568H393.365c-8.546,0-15.473-6.971-15.473-15.568v-7.784
		c0-8.598,6.927-15.569,15.473-15.569h244.461c8.546,0,15.474,6.971,15.474,15.569V217.502z"/>
	<g>
		<path fill="#F39200" d="M441.324,82.799v11.677h-63.433V30.757h62.57v11.676h-41.139v13.364h39.229v11.676h-39.229v15.325H441.324
			z"/>
		<path fill="#F39200" d="M537.889,75.045v13.912c-10.757,4.227-22.027,6.34-33.811,6.34c-15.272,0-27.436-3.125-36.489-9.373
			c-9.053-6.249-13.58-13.949-13.58-23.102c0-9.152,4.773-16.922,14.318-23.307c9.546-6.386,22.017-9.579,37.413-9.579
			c12.276,0,22.663,1.87,31.162,5.61v14.185c-10.429-4.348-20.302-6.522-29.622-6.522c-9.156,0-16.639,1.817-22.448,5.451
			c-5.811,3.633-8.714,8.263-8.714,13.888c0,5.656,2.864,10.324,8.591,14.003c5.728,3.679,13.066,5.519,22.016,5.519
			c4.435,0,8.704-0.434,12.81-1.3C523.642,79.903,529.76,77.995,537.889,75.045z"/>
		<path fill="#F39200" d="M601.229,54.383l27.652-23.626h18.629v63.719h-21.431V54.703L602.836,74.68h-3.219L576.38,54.703v39.773
			h-21.432V30.757h18.608L601.229,54.383z"/>
	</g>
	<path fill="#008B8B" d="M337.081,57.955c0,10.747-6.97,19.461-15.568,19.461H75.545c-8.599,0-15.569-8.714-15.569-19.461v-9.73
		c0-10.747,6.97-19.461,15.569-19.461h245.967c8.598,0,15.568,8.714,15.568,19.461V57.955z"/>
	<text transform="matrix(1.0886 0 0 1 61.4556 309.3789)" fill="#9D9D9C" font-family="'GillSansMT-Italic'" font-size="56.4335">digital values for business</text>
</g>
<g id="Layer_2" display="none">
	
		<circle display="inline" fill="none" stroke="#009FE3" stroke-width="2" stroke-miterlimit="10" cx="151.468" cy="364.52" r="8.26"/>
	
		<circle display="inline" fill="none" stroke="#009FE3" stroke-width="2" stroke-miterlimit="10" cx="151.468" cy="303.52" r="8.26"/>
	
		<circle display="inline" fill="none" stroke="#009FE3" stroke-width="2" stroke-miterlimit="10" cx="151.468" cy="427.245" r="8.26"/>
	
		<circle display="inline" fill="none" stroke="#009FE3" stroke-width="2" stroke-miterlimit="10" cx="387.115" cy="429.709" r="8.26"/>
	
		<circle display="inline" fill="none" stroke="#009FE3" stroke-width="2" stroke-miterlimit="10" cx="566.637" cy="364.52" r="8.26"/>
</g>
</svg>
